<svg width="46" height="46" viewBox="0 0 46 46" fill="none" xmlns="http://www.w3.org/2000/svg">
<path d="M36.4166 7.66668H34.5V5.75001C34.5 4.69584 33.6375 3.83334 32.5833 3.83334C31.5291 3.83334 30.6666 4.69584 30.6666 5.75001V7.66668H15.3333V5.75001C15.3333 4.69584 14.4708 3.83334 13.4167 3.83334C12.3625 3.83334 11.5 4.69584 11.5 5.75001V7.66668H9.58333C7.45583 7.66668 5.76917 9.39168 5.76917 11.5L5.75 38.3333C5.75 40.4417 7.45583 42.1667 9.58333 42.1667H36.4166C38.525 42.1667 40.25 40.4417 40.25 38.3333V11.5C40.25 9.39168 38.525 7.66668 36.4166 7.66668ZM36.4166 36.4167C36.4166 37.4708 35.5541 38.3333 34.5 38.3333H11.5C10.4458 38.3333 9.58333 37.4708 9.58333 36.4167V17.25H36.4166V36.4167ZM13.4167 21.0833H17.25V24.9167H13.4167V21.0833ZM21.0833 21.0833H24.9166V24.9167H21.0833V21.0833ZM28.75 21.0833H32.5833V24.9167H28.75V21.0833Z" fill="#242C2E"/>
</svg>
