<svg width="107" height="90" viewBox="0 0 107 90" fill="none" xmlns="http://www.w3.org/2000/svg">
<g clip-path="url(#clip0_1_4)">
<path d="M21.06 10.53C21.06 4.71444 16.3456 0 10.53 0C4.71444 0 0 4.71444 0 10.53V79.47C0 85.2856 4.71444 90 10.53 90C16.3456 90 21.06 85.2856 21.06 79.47V10.53Z" fill="#FF0000"/>
<path d="M66.06 10.53C66.06 4.71444 61.3456 0 55.53 0C49.7144 0 45 4.71444 45 10.53V79.47C45 85.2856 49.7144 90 55.53 90C61.3456 90 66.06 85.2856 66.06 79.47V10.53Z" fill="#FF8A00"/>
<path d="M10.53 34.38C4.71444 34.38 0 39.0945 0 44.91C0 50.7256 4.71444 55.44 10.53 55.44L79.47 55.44C85.2856 55.44 90 50.7256 90 44.91C90 39.0945 85.2856 34.38 79.47 34.38H10.53Z" fill="#D900A9"/>
<path d="M21.06 10.53C21.06 4.71444 16.3456 0 10.53 0C4.71444 0 0 4.71444 0 10.53V34.47C0 40.2856 4.71444 45 10.53 45C16.3456 45 21.06 40.2856 21.06 34.47V10.53Z" fill="#35C810"/>
<path d="M55.53 7.62939e-06C49.7144 7.62939e-06 45 4.71445 45 10.53C45 16.3456 49.7144 21.06 55.53 21.06L95.49 21.06C101.306 21.06 106.02 16.3456 106.02 10.53C106.02 4.71445 101.306 7.62939e-06 95.49 7.62939e-06L55.53 7.62939e-06Z" fill="#104EC8"/>
<path d="M10.53 34.38C4.71445 34.38 0 39.0945 0 44.91C0 50.7256 4.71445 55.44 10.53 55.44H55.5301C61.3456 55.44 66.0601 50.7256 66.0601 44.91C66.0601 39.0945 61.3456 34.38 55.5301 34.38H10.53Z" fill="#128DFF"/>
</g>
<defs>
<clipPath id="clip0_1_4">
<rect width="106.02" height="90" fill="white"/>
</clipPath>
</defs>
</svg>
